<?xml version="1.0" standalone="no"?>
<!DOCTYPE svg PUBLIC "-//W3C//DTD SVG 20010904//EN"
 "http://www.w3.org/TR/2001/REC-SVG-20010904/DTD/svg10.dtd">
<svg version="1.0" xmlns="http://www.w3.org/2000/svg"
 width="16" height="16" viewBox="0 0 285.000000 264.000000"
 preserveAspectRatio="xMidYMid meet">
<metadata>
Created by potrace 1.16, written by Peter Selinger 2001-2019
</metadata>
<g transform="translate(0.000000,264.000000) scale(0.100000,-0.100000)"
fill="#000000" stroke="none">
<path d="M1005 2315 c-495 -179 -915 -331 -933 -340 -17 -8 -41 -29 -52 -47
-19 -32 -20 -52 -20 -550 0 -307 4 -527 10 -542 12 -31 959 -823 995 -832 70
-17 111 -1 948 388 455 212 839 396 852 408 14 13 30 40 36 59 6 24 9 237 7
618 -3 563 -4 582 -23 608 -11 15 -202 146 -424 291 -384 252 -406 264 -450
263 -34 0 -276 -83 -946 -324z m1335 -72 l365 -239 3 -547 2 -546 -22 -15
c-13 -8 -384 -181 -826 -386 -716 -331 -805 -370 -822 -358 -11 7 -217 177
-459 378 l-440 365 -1 477 0 476 43 16 c23 9 429 155 902 325 569 204 865 306
875 301 8 -5 179 -116 380 -247z"/>
<path d="M968 1557 c-31 -12 -61 -26 -66 -32 -5 -5 -24 -58 -42 -117 -18 -60
-36 -108 -39 -108 -4 0 -19 40 -34 89 l-27 90 -60 -21 c-48 -16 -60 -24 -55
-37 3 -9 29 -77 59 -151 48 -119 53 -136 39 -147 -10 -8 -23 -9 -40 -2 -14 5
-27 8 -28 7 -10 -12 -35 -70 -35 -82 0 -18 51 -36 102 -36 53 0 94 26 118 75
23 48 180 471 180 485 0 13 -6 12 -72 -13z"/>
<path d="M1171 1536 c-50 -17 -103 -64 -126 -112 -17 -37 -20 -130 -4 -171 18
-50 79 -103 138 -120 212 -61 374 160 244 335 -49 66 -163 97 -252 68z m136
-118 c30 -25 45 -76 33 -114 -26 -77 -100 -96 -156 -40 -37 37 -44 81 -20 125
27 48 102 64 143 29z"/>
<path d="M1520 1384 c0 -171 9 -208 58 -240 40 -27 123 -24 162 4 29 22 30 22
30 2 0 -18 6 -20 60 -20 l60 0 0 205 0 205 -60 0 -60 0 0 -128 c0 -152 -9
-175 -68 -170 -53 4 -62 29 -62 176 l0 122 -60 0 -60 0 0 -156z"/>
<path d="M2080 1335 l0 -205 65 0 65 0 0 205 0 205 -65 0 -65 0 0 -205z"/>
<path d="M1930 1080 c0 -13 7 -20 20 -20 18 0 20 -7 20 -55 0 -52 1 -55 25
-55 24 0 25 3 25 55 0 51 2 55 24 55 19 0 27 -10 43 -52 29 -76 55 -77 87 -5
40 92 41 97 12 97 -20 0 -29 -8 -40 -32 l-14 -33 -13 33 -13 32 -88 0 c-81 0
-88 -2 -88 -20z"/>
</g>
</svg>
